<?xml version="1.0" encoding="UTF-8"?>
<svg width="200px" height="200px" viewBox="0 0 200 200" version="1.1" xmlns="http://www.w3.org/2000/svg" xmlns:xlink="http://www.w3.org/1999/xlink">
    <title>画板备份 3</title>
    <defs>
        <linearGradient x1="50.2153233%" y1="0%" x2="50.2153233%" y2="100.043396%" id="linearGradient-1">
            <stop stop-color="#FF4800" offset="0%"></stop>
            <stop stop-color="#FFA602" offset="100%"></stop>
        </linearGradient>
        <linearGradient x1="35.1693141%" y1="69.5035311%" x2="68.5505252%" y2="43.9775065%" id="linearGradient-2">
            <stop stop-color="#FFC816" offset="0%"></stop>
            <stop stop-color="#F77D30" offset="33.5%"></stop>
            <stop stop-color="#ED284E" offset="71.6115%"></stop>
        </linearGradient>
        <linearGradient x1="38.7549149%" y1="52.4705144%" x2="100.587423%" y2="-0.165194017%" id="linearGradient-3">
            <stop stop-color="#FFC816" offset="0%"></stop>
            <stop stop-color="#F77D30" offset="33.5%"></stop>
            <stop stop-color="#ED284E" offset="71.6115%"></stop>
        </linearGradient>
        <path d="M0,0 C50.5105208,0.272853954 91.6566375,41.8178145 94,94 L0,94 L0,0 Z" id="path-4"></path>
    </defs>
    <g id="画板备份-3" stroke="none" stroke-width="1" fill="none" fill-rule="evenodd">
        <g id="编组-2" transform="translate(0.000000, 33.000000)">
            <path d="M0,73 C50.5105208,73.272854 91.6566375,114.817814 94,167 L0,167 L0,73 Z" id="路径" fill="url(#linearGradient-1)" fill-rule="nonzero"></path>
            <path d="M0,167 C2.61182976,167 5.15866842,167 7.97269271,167 C25.7942448,167 43.4140536,162.247638 58.1963691,151.950103 C76.4123811,139.260621 88.8306454,119.895309 92.7251467,98.0975092 C96.5844445,76.2947539 91.600891,53.8545965 78.8694056,35.7019253 C66.136115,17.5488038 46.6929448,5.16248193 24.8044845,1.26239194 C17.5530124,-0.00655625775 10.232036,-0.310166867 3.02163474,0.31237002 C1.40994577,0.451562421 0.201743201,1.81871108 0.201743201,3.43316275 L0.201743201,3.43316275 C0.201743201,5.35933332 1.89873299,6.8413495 3.82183764,6.68233682 C10.3972217,6.13863058 17.0696411,6.42962829 23.6793261,7.59046588 C43.8829824,11.189648 61.8304547,22.6227947 73.583463,39.3799381 C85.3369225,56.137532 89.9341401,76.851073 86.3700102,96.9758617 C82.7774467,117.097948 71.3168984,134.972234 54.5009031,146.684216 C50.1248358,149.733836 45.4788749,152.301463 40.6442594,154.364573 C42.8282311,153.170852 44.9562382,151.855506 47.0174489,150.418536 C62.1080209,139.90478 72.3973754,123.86387 75.621656,105.804894 C78.8206623,87.7414144 74.6910196,69.1504449 64.1439573,54.1118096 C53.594187,39.0722734 37.4867752,28.8121267 19.3533561,25.5800702 C13.7271129,24.5958132 8.05032096,24.3124734 2.4457414,24.7039238 C1.16938844,24.7931151 0.201743201,25.8683651 0.201743201,27.1454216 L0.201743201,27.1454216 C0.201743201,28.6292396 1.4938926,29.7801671 2.97740469,29.6806152 C8.11621471,29.3355622 13.3195645,29.6022351 18.4777816,30.5040577 C35.3009982,33.5014241 50.2462428,43.0205627 60.0337217,56.9735873 C69.8212005,70.926612 73.6516134,88.1738568 70.6859432,104.935505 C67.6922907,121.688144 58.1399533,136.566865 44.1384335,146.319343 C36.4031389,151.706854 27.6564202,155.283513 18.5387108,156.914182 C24.6681837,155.27 30.5241525,152.576244 35.8245376,148.882465 C47.7928288,140.548939 55.9501143,127.82342 58.5050769,113.50327 C61.0406323,99.1831199 57.7658031,84.4395364 49.4022612,72.514036 C41.0382679,60.5889861 28.2634552,52.4527623 13.8855287,49.890541 C9.88270887,49.1900744 5.84874751,48.9373659 1.8522463,49.1166493 C0.920707224,49.1585422 0.201743201,49.9351367 0.201743201,50.8657888 L0.201743201,50.8657888 C0.201743201,51.9045515 1.08950355,52.7194351 2.12936112,52.6748395 C5.82753514,52.5167278 9.55955869,52.7541206 13.2626973,53.4009824 C26.7068281,55.7965332 38.6493937,63.4034654 46.4708918,74.5555246 C54.291036,85.7053314 57.3510335,99.4894332 54.9779558,112.881634 C52.5886303,126.26933 44.9616541,138.166001 33.7728047,145.958974 C23.9401931,152.810483 11.8617781,156.193444 0,155.27 L0,167 Z" id="路径" fill="url(#linearGradient-2)" fill-rule="nonzero"></path>
            <path d="M0,154.985134 C8.66486154,155.217741 17.4366354,152.718361 24.6236707,147.646626 C33.4658173,141.411859 39.4921545,131.893236 41.3813902,121.179653 C43.2543861,110.46607 40.8350998,99.433223 34.654484,90.5120787 C28.4765748,81.589566 19.0421249,75.5034847 8.42036159,73.5883577 C5.68755593,73.1039888 3.28135167,73.0497139 0,73 L0,75.169626 C2.60739794,75.08981 5.43719159,75.2622125 8.04549175,75.7242329 C18.1060781,77.5376516 27.0407015,83.3012764 32.8938137,91.7526468 C38.7451214,100.204017 41.0390001,110.653067 39.2652477,120.801097 C37.4752555,130.949127 31.7651442,139.96605 23.3935022,145.872432 C16.5682546,150.684194 8.22683673,153.046747 0,152.81414 L0,154.985134 Z" id="路径" fill="url(#linearGradient-3)" fill-rule="nonzero"></path>
            <g id="Clipped" transform="translate(0.000000, 73.000000)">
                <mask id="mask-5" fill="white">
                    <use xlink:href="#path-4"></use>
                </mask>
                <g id="路径"></g>
                <g id="编组" mask="url(#mask-5)" fill="#FFFFFF" fill-rule="nonzero">
                    <g transform="translate(0.000000, -74.032459)" id="路径">
                        <path d="M0,168.032459 C2.61745586,168.032459 5.16978063,168.032459 7.98986657,168.032459 C25.8498078,168.032459 43.5075712,163.250717 58.3217291,152.889518 C76.5769799,140.121585 89.0219943,120.636549 92.9248846,98.7039865 C96.7924957,76.766438 91.7982072,54.1875467 79.0392971,35.9226487 C66.2785779,17.6572974 46.7935254,5.19439842 24.8579155,1.27019654 C17.5908231,-0.00659679111 10.2540767,-0.31208444 3.0281436,0.314301214 C1.41298291,0.454354157 0.202177773,1.82995507 0.202177773,3.45438791 L0.202177773,3.45438791 C0.202177773,5.39246682 1.90282302,6.88364541 3.8300702,6.72364965 C10.4196182,6.176582 17.1064106,6.46937877 23.7303334,7.63739312 C43.9775101,11.2588268 61.9636428,22.7626577 73.7419681,39.6234004 C85.5207456,56.4845963 90.127866,77.3261965 86.5560586,97.5754045 C82.9557565,117.821893 71.4705212,135.806685 54.6183027,147.591075 C50.232809,150.659549 45.5768404,153.24305 40.7318106,155.318916 C42.9204868,154.117814 45.0530778,152.794337 47.1187286,151.348483 C62.2418069,140.769726 72.5533256,124.629645 75.7845516,106.459022 C78.9904488,88.2838662 74.8519105,69.5779601 64.2821289,54.44635 C53.7096335,39.3138335 37.5675249,28.9902546 19.3950449,25.7382162 C13.7566822,24.7478742 8.06766205,24.4627826 2.45100973,24.8566532 C1.1719074,24.9463958 0.202177773,26.0282935 0.202177773,27.3132452 L0.202177773,27.3132452 C0.202177773,28.8062368 1.49711058,29.9642798 2.98381827,29.8641124 C8.13369774,29.5169262 13.348256,29.7852477 18.5175843,30.6926457 C35.3770396,33.7085431 50.3544775,43.2865327 60.1630395,57.3258204 C69.9716014,71.3651081 73.8102653,88.7189822 70.8382068,105.584257 C67.8381057,122.440467 58.2651917,137.411175 44.2335115,147.223946 C36.4815544,152.644766 27.7159946,156.243537 18.5786447,157.884287 C24.7213211,156.22994 30.5899041,153.51953 35.9017067,149.802915 C47.8957787,141.417868 56.0706357,128.613675 58.6311018,114.204992 C61.1721191,99.7963088 57.8902356,84.9615747 49.5086779,72.9623462 C41.1266679,60.963571 28.3243371,52.7770459 13.9154393,50.1989839 C9.90399707,49.4941867 5.86134622,49.2399159 1.8562362,49.4203077 C0.922690507,49.4624595 0.202177773,50.2438552 0.202177773,51.180261 L0.202177773,51.180261 C0.202177773,52.2254458 1.09185043,53.0453674 2.13394795,53.000496 C5.84008815,52.8414068 9.5801508,53.0802673 13.2912663,53.7311282 C26.7643569,56.1414892 38.7326478,63.7954505 46.5709941,75.0164561 C54.4079836,86.2351954 57.4745726,100.104516 55.096383,113.579513 C52.7019107,127.049977 45.0585054,139.020198 33.8455542,146.86135 C23.9917624,153.755218 11.8873294,157.159093 0,156.22994 L0,168.032459 Z"></path>
                        <path d="M0,155.504746 C8.68776434,155.735902 17.4827236,153.252115 24.6887556,148.212022 C33.5542735,142.016152 39.5965394,132.556913 41.4907688,121.91017 C43.3687153,111.263427 40.9430344,100.299412 34.7460821,91.4339243 C28.5518436,82.5670773 19.0924567,76.5189658 8.44261814,74.6157868 C5.70258917,74.1344398 3.29002488,74.0805035 0,74.0310998 L0,76.1871899 C2.61428977,76.1078719 5.45156308,76.2791988 8.06675745,76.7383367 C18.1539357,78.5404419 27.112175,84.2681087 32.980758,92.6667528 C38.8475318,101.065397 41.1474736,111.449258 39.3690329,121.533976 C37.5743094,131.618694 31.8491053,140.579363 23.4553354,146.448896 C16.6120475,151.230639 8.24858175,153.578452 0,153.347297 L0,155.504746 Z"></path>
                    </g>
                </g>
            </g>
        </g>
    </g>
</svg>