<svg width="2001" height="2000" viewBox="0 0 2001 2000" fill="none" xmlns="http://www.w3.org/2000/svg">
<g clip-path="url(#clip0_1927_184)">
<rect width="2000" height="2000" transform="translate(0.742188 0.00390625)" fill="white"/>
<rect width="2000" height="2000" transform="translate(0.742188 0.00390625)" fill="white"/>
<rect x="0.742188" y="-14.6855" width="2000" height="2029.38" fill="#FD2D17"/>
<g clip-path="url(#clip1_1927_184)">
<path d="M1502.96 908.219V596.29C1502.96 586.405 1496.41 577.731 1486.89 574.976L1025.73 442.103C1011.52 438.008 997.336 448.655 997.336 463.417V694.874C997.336 707.253 985.433 716.188 973.512 712.744L526.923 584.041C512.707 579.946 498.527 590.594 498.527 605.355V917.303C498.527 927.188 505.076 935.862 514.591 938.617L983.866 1073.84C991.851 1076.14 997.336 1083.42 997.336 1091.71V1187.54C997.336 1199.91 985.433 1208.85 973.512 1205.41L526.923 1076.72C512.707 1072.63 498.527 1083.27 498.527 1098.03V1409.98C498.527 1419.87 505.076 1428.54 514.591 1431.3L975.75 1564.19C989.967 1568.28 1004.15 1557.64 1004.15 1542.87V1311.42C1004.15 1299.04 1016.05 1290.1 1027.97 1293.55L1474.56 1422.23C1488.78 1426.33 1502.96 1415.68 1502.96 1400.92V1088.97C1502.96 1079.09 1496.41 1070.41 1486.89 1067.66L1017.62 932.437C1009.63 930.129 1004.15 922.85 1004.15 914.567V818.737C1004.15 806.359 1016.05 797.423 1027.97 800.867L1474.56 929.552C1488.78 933.647 1502.96 922.999 1502.96 908.238V908.219Z" fill="white"/>
</g>
</g>
<defs>
<clipPath id="clip0_1927_184">
<rect width="2000" height="2000" fill="white" transform="translate(0.742188 0.00390625)"/>
</clipPath>
<clipPath id="clip1_1927_184">
<rect width="1004.43" height="1123.84" fill="white" transform="translate(498.527 441.211)"/>
</clipPath>
</defs>
</svg>
