<svg width="102" height="116" viewBox="0 0 102 116" fill="none" xmlns="http://www.w3.org/2000/svg">
<path d="M0 16.7059V48.9773C0 49.8769 0.600615 50.6658 1.46777 50.9052L47.2983 63.5576C48.5991 63.9167 49.5 65.1 49.5 66.4494V73.5192C49.5 75.4918 47.6289 76.9275 45.7235 76.417L2.51764 64.84C1.24739 64.4996 0 65.4568 0 66.7719V100.934C0 101.839 0.607994 102.631 1.48236 102.866L47.9824 115.325C49.2526 115.666 50.5 114.709 50.5 113.394V91.2443C50.5 89.2717 52.3711 87.836 54.2765 88.3465L98.9824 100.325C100.253 100.666 101.5 99.7086 101.5 98.3935V65.7001C101.5 64.7948 100.892 64.0025 100.018 63.7682L52.7235 51.0958C51.412 50.7444 50.5 49.5558 50.5 48.198V40.7443C50.5 38.7717 52.3711 37.3359 54.2765 37.8465L98.9824 49.8254C100.253 50.1658 101.5 49.2086 101.5 47.8936V15.2001C101.5 14.2949 100.892 13.5025 100.018 13.2682L53.0176 0.674599C51.7474 0.334238 50.5 1.2914 50.5 2.60645V25.4411C50.5 27.4586 48.5485 28.901 46.6197 28.309L2.58684 14.794C1.30102 14.3993 0 15.3609 0 16.7059Z" fill="#FD2D17"/>
</svg>
