<svg width="32" height="32" viewBox="0 0 32 32" fill="none" xmlns="http://www.w3.org/2000/svg">
<path d="M23.7615 22.5107L22.8164 20.9129H9.18477L16.0066 9.11096L14.2254 6.01221H11.9232C10.9175 6.01221 9.99661 6.55691 9.49981 7.42843L5.36791 14.7032C4.88322 15.5506 4.88322 16.6037 5.36791 17.451L8.25175 22.547L9.48769 24.7258C9.98449 25.5973 10.9054 26.142 11.9111 26.142H20.078C21.0837 26.142 22.0046 25.6094 22.5135 24.7258L23.7494 22.5591L23.7615 22.5107Z" fill="#A0A3A7"/>
<path d="M22.8285 20.9127H9.20898L9.26957 20.8764L13.8377 18.1408C14.5405 17.6808 15.0736 17.4145 15.5704 17.3298C15.5825 17.3298 15.5947 17.3177 15.6068 17.3177C15.6431 17.3056 15.6674 17.3056 15.7037 17.3056C15.7643 17.2935 15.8128 17.2935 15.8733 17.2935H15.9824C16.0551 17.2935 16.152 17.3056 16.2247 17.3177C16.7458 17.3903 17.3032 17.6445 18.0665 18.0803L22.8043 20.8885L22.8285 20.9127Z" fill="#A0A3A7"/>
<g opacity="0.5">
<path d="M18.0305 18.0681C16.225 17.0271 15.5586 16.9908 13.8138 18.1286L9.18506 20.9005L13.8138 18.7096C15.5586 17.5718 16.225 17.6081 18.0305 18.6491L22.8046 20.8884L18.0305 18.0681Z" fill="#A0A3A7"/>
</g>
<path d="M23.7619 22.5103L23.7377 22.5466L22.5017 24.7133C22.0049 25.5848 21.0841 26.1295 20.0783 26.1295H11.9357C10.93 26.1295 10.0091 25.5848 9.5123 24.7133L8.27637 22.5345L9.22149 20.9004L9.26996 20.8641L13.8381 18.1164C14.5409 17.6564 15.074 17.3901 15.5708 17.3054C15.5829 17.3054 15.595 17.2933 15.6072 17.2933C15.6435 17.2811 15.6677 17.2811 15.7041 17.2811C15.7647 17.269 15.8132 17.269 15.8737 17.269H15.9828C16.0555 17.269 16.1524 17.2811 16.2251 17.2933C16.7462 17.3659 17.3035 17.6201 18.0548 18.0558L22.7926 20.8762L22.8168 20.8883L23.7619 22.5103Z" fill="#A0A3A7"/>
<path d="M26.6455 17.4389L23.7496 22.547L23.7738 22.5107L22.8287 20.9129L16.031 9.09886L16.0189 9.11096L14.2256 6.01221H20.0902C21.0959 6.01221 22.0168 6.55691 22.5136 7.42843L26.6455 14.7032C27.1181 15.5506 27.1181 16.5915 26.6455 17.4389Z" fill="#A0A3A7"/>
<path d="M5.35595 17.4389L8.25192 22.547L8.22768 22.5107L9.17281 20.9129L15.9705 9.09886L15.9826 9.11096L17.7638 6.01221H11.8991C10.8934 6.01221 9.97253 6.55691 9.47574 7.42843L5.34383 14.7032C4.88339 15.5506 4.88339 16.5915 5.35595 17.4389Z" fill="#A0A3A7"/>
<path opacity="0.51" d="M17.7637 6L15.9946 9.07454L16.3218 9.60714L17.7637 6Z" fill="#A0A3A7"/>
<path d="M16 9L23 21C23 21 17.5 17.5 16 17.5C14.5 17.5 9 21 9 21L16 9Z" fill="white"/>
</svg>
