<svg width="32" height="32" viewBox="0 0 32 32" fill="none" xmlns="http://www.w3.org/2000/svg">
<path d="M12.3992 14.7464C11.7719 14.6217 11.1875 15.1288 11.1875 15.769V17.9346C11.1875 18.3729 11.4926 18.7253 11.9051 18.8799C12.6871 19.1721 13.25 19.9284 13.25 20.8135C13.25 21.9522 12.3262 22.876 11.1875 22.876C10.0488 22.876 9.125 21.9522 9.125 20.8135V10.1573C9.125 9.58581 8.66523 9.12604 8.09375 9.12604H6.03125C5.45977 9.12604 5 9.58581 5 10.1573V20.8135C5 24.6592 8.52773 27.6971 12.5195 26.8592C14.857 26.3694 16.7434 24.4788 17.2332 22.1456C17.9809 18.5835 15.6434 15.3909 12.3992 14.7464ZM13.9805 5.00104C13.5852 4.97956 13.25 5.29323 13.25 5.68854V7.04635C13.25 7.41159 13.5336 7.71237 13.8945 7.72956C19.4547 8.03034 23.9234 12.5421 24.2457 18.1065C24.2672 18.4674 24.568 18.751 24.9289 18.751H26.3082C26.7035 18.751 27.0172 18.4159 26.9957 18.0206C26.6305 11.0081 20.993 5.37057 13.9805 5.00104ZM13.9934 9.12604C13.5938 9.09596 13.25 9.41393 13.25 9.81784V11.1971C13.25 11.5581 13.5293 11.8546 13.8859 11.8803C17.1859 12.151 19.8156 14.8108 20.1121 18.1194C20.1465 18.476 20.4387 18.751 20.7953 18.751H22.1789C22.5785 18.751 22.9008 18.4073 22.8707 18.0077C22.5098 13.2768 18.7242 9.49128 13.9934 9.12604Z" fill="#A0A3A7"/>
</svg>
