<svg width="32" height="32" viewBox="0 0 32 32" fill="none" xmlns="http://www.w3.org/2000/svg">
<path d="M23.8476 18.1459C23.4635 18.3888 23.0116 18.4191 22.6688 18.2257C22.2324 17.9782 21.9923 17.4025 21.9923 16.5995V14.1997C21.9923 13.041 21.5339 12.216 20.7676 11.9933C19.4696 11.6147 18.4924 13.2032 18.1258 13.8009L15.8359 17.5134V12.9759C15.8103 11.9309 15.4711 11.3067 14.8276 11.1178C14.4004 10.9941 13.7633 11.0436 13.1437 11.9914L8.01308 20.2295C7.32712 18.9253 6.96908 17.4736 6.96992 16C6.96992 11.0372 10.9473 7.00017 15.8359 7.00017C20.7236 7.00017 24.7001 11.0372 24.7001 16C24.7038 16.0165 24.7019 16.0312 24.7028 16.0486C24.7487 17.0102 24.437 17.7747 23.8476 18.1478V18.1459ZM26.6709 16.0009L26.67 15.9505C26.6425 9.90692 21.7933 5 15.835 5C9.86108 5 5 9.93442 5 16C5 22.0647 9.86108 27 15.835 27C18.5767 27 21.1938 25.9578 23.2023 24.0667C23.601 23.6908 23.6239 23.0583 23.2545 22.6541C23.1674 22.5579 23.0619 22.4801 22.9443 22.4252C22.8267 22.3704 22.6993 22.3395 22.5697 22.3345C22.44 22.3294 22.3106 22.3503 22.1891 22.3959C22.0676 22.4415 21.9564 22.5109 21.8621 22.6C20.2342 24.1413 18.0776 25.0001 15.8359 24.9998C13.2179 24.9998 10.863 23.8421 9.23867 22.0042L13.866 14.5746V18.0002C13.866 19.6447 14.504 20.1763 15.0393 20.3322C15.5747 20.488 16.3923 20.3817 17.2513 18.9865C18.1661 17.507 19.1075 15.9643 20.0223 14.5132V16.5995C20.0223 18.1377 20.6383 19.3678 21.7118 19.9728C22.6798 20.5201 23.8971 20.4706 24.888 19.8445C26.0907 19.0855 26.7378 17.6867 26.67 16.0009H26.6709Z" fill="#A0A3A7"/>
</svg>
