<svg width="32" height="32" viewBox="0 0 32 32" fill="none" xmlns="http://www.w3.org/2000/svg">
<mask id="mask0_6348_4561" style="mask-type:luminance" maskUnits="userSpaceOnUse" x="5" y="5" width="22" height="23">
<path d="M27 5H5V27.2335H27V5Z" fill="white"/>
</mask>
<g mask="url(#mask0_6348_4561)">
<path d="M26.9999 16.0293C27.0274 22.1482 22.1245 27.1306 16.05 27.1583C9.97459 27.186 5.02757 22.2481 5.00012 16.1292C4.9726 10.0102 9.87539 5.02781 15.9508 5.00011C22.0254 4.97325 26.9724 9.91035 26.9999 16.0293Z" fill="#A0A3A7"/>
<path d="M21.5798 12.1148C20.7814 11.8823 19.9547 11.5516 19.1163 11.2183C19.0679 11.0068 18.8822 10.7433 18.5054 10.4201C17.9579 9.94169 16.9295 9.95428 16.0411 10.1658C15.0602 9.9333 14.091 9.8502 13.1609 10.0751C5.55542 12.1862 9.86737 17.3339 7.07471 22.5102C7.47219 23.3588 11.8566 27.4359 17.952 26.9832C17.952 26.9832 15.8328 21.8539 20.6156 19.3912C24.495 17.3943 27.2977 13.6861 21.579 12.114L21.5798 12.1148Z" fill="#F9F9FA"/>
<path d="M16.5676 13.3488C16.5676 14.5322 15.615 15.4908 14.4407 15.4908C13.2665 15.4908 12.314 14.5322 12.314 13.3488C12.314 12.1652 13.2665 11.2075 14.4407 11.2075C15.615 11.2075 16.5676 12.1661 16.5676 13.3488Z" fill="#F9F9FA"/>
<path d="M24.2433 16.4304C22.5207 17.6533 20.5597 18.5808 17.7803 18.5808C16.4794 18.5808 16.2152 17.1883 15.3552 17.8707C14.911 18.2232 13.3459 19.0114 12.1033 18.9518C10.8499 18.8914 8.84887 18.1578 8.28635 15.4878C8.06385 18.1578 7.95049 20.1253 6.95459 22.3797C9.39931 25.9727 13.6618 27.7602 17.9537 26.9828C17.4928 23.7403 20.3063 20.565 21.8914 18.94C22.4915 18.3248 23.6415 17.3201 24.2433 16.4304Z" fill="#F9F9FA"/>
<path d="M15.3369 15.0814C16.0262 15.0814 16.5849 14.2991 16.5849 13.3342C16.5849 12.3692 16.0262 11.5869 15.3369 11.5869C14.6476 11.5869 14.0889 12.3692 14.0889 13.3342C14.0889 14.2991 14.6476 15.0814 15.3369 15.0814Z" fill="#A0A3A7"/>
<path d="M15.835 10.1615C16.5159 10.4337 19.0024 11.2619 20.0783 11.5869C18.9798 9.76435 17.3152 9.86953 15.835 10.1615Z" fill="#F9F9FA"/>
<path d="M15.3355 13.3334L13.8379 12.335V14.3318L15.3355 13.3334Z" fill="#F9F9FA"/>
</g>
</svg>
