<svg width="32" height="32" viewBox="0 0 32 32" fill="none" xmlns="http://www.w3.org/2000/svg">
<path d="M27 27L22.6 22.6H11.6C10.995 22.6 10.4773 22.3848 10.0468 21.9543C9.61633 21.5238 9.40073 21.0057 9.4 20.4V19.3H21.5C22.105 19.3 22.6231 19.0848 23.0543 18.6543C23.4855 18.2238 23.7007 17.7057 23.7 17.1V9.4H24.8C25.405 9.4 25.9231 9.6156 26.3543 10.0468C26.7855 10.478 27.0007 10.9957 27 11.6V27ZM7.2 16.1925L8.4925 14.9H19.3V7.2H7.2V16.1925ZM5 21.5V7.2C5 6.595 5.2156 6.07727 5.6468 5.6468C6.078 5.21633 6.59573 5.00073 7.2 5H19.3C19.905 5 20.4231 5.2156 20.8543 5.6468C21.2855 6.078 21.5007 6.59573 21.5 7.2V14.9C21.5 15.505 21.2848 16.0231 20.8543 16.4543C20.4238 16.8855 19.9057 17.1007 19.3 17.1H9.4L5 21.5Z" fill="#A0A3A7"/>
</svg>
