<svg width="32" height="32" viewBox="0 0 32 32" fill="none" xmlns="http://www.w3.org/2000/svg">
<path fill-rule="evenodd" clip-rule="evenodd" d="M16 4C9.3724 4 4 9.3808 4 16.0204C4 21.3304 7.438 25.8364 12.2068 27.4252C12.8068 27.5356 13.0252 27.1648 13.0252 26.8456C13.0252 26.5612 13.0156 25.804 13.0096 24.802C9.6712 25.528 8.9668 23.1904 8.9668 23.1904C8.422 21.8008 7.6348 21.4312 7.6348 21.4312C6.5452 20.6872 7.7176 20.7016 7.7176 20.7016C8.9212 20.7856 9.5548 21.94 9.5548 21.94C10.6252 23.776 12.364 23.2456 13.0468 22.9384C13.1572 22.162 13.4668 21.6328 13.81 21.3328C11.146 21.0292 8.344 19.9972 8.344 15.3916C8.344 14.08 8.812 13.006 9.5788 12.166C9.4552 11.8624 9.0436 10.6396 9.6964 8.986C9.6964 8.986 10.7044 8.662 12.9964 10.2172C13.9753 9.95022 14.9853 9.81423 16 9.8128C17.02 9.8176 18.046 9.9508 19.0048 10.2172C21.2956 8.662 22.3012 8.9848 22.3012 8.9848C22.9564 10.6396 22.5436 11.8624 22.4212 12.166C23.1892 13.006 23.6548 14.08 23.6548 15.3916C23.6548 20.0092 20.848 21.0256 18.1756 21.3232C18.6064 21.694 18.9892 22.4272 18.9892 23.5492C18.9892 25.1548 18.9748 26.452 18.9748 26.8456C18.9748 27.1672 19.1908 27.5416 19.8004 27.424C22.19 26.6225 24.2672 25.0904 25.7386 23.0441C27.2099 20.9977 28.001 18.5408 28 16.0204C28 9.3808 22.6264 4 16 4Z" fill="#A0A3A7"/>
</svg>
