<svg width="32" height="32" viewBox="0 0 32 32" fill="none" xmlns="http://www.w3.org/2000/svg">
<path d="M5 6.57575C5 5.70538 5.72325 5 6.61562 5H25.3844C26.2768 5 27 5.70538 27 6.57575V25.4242C27 26.2946 26.2768 27 25.3844 27H6.61562C5.72325 27 5 26.2946 5 25.4242V6.57575ZM11.7966 23.4167V13.4824H8.49525V23.4167H11.7966ZM10.1466 12.1253C11.2975 12.1253 12.0139 11.3635 12.0139 10.4093C11.9932 9.43437 11.2989 8.69325 10.1686 8.69325C9.03837 8.69325 8.3 9.43575 8.3 10.4093C8.3 11.3635 9.01638 12.1253 10.1246 12.1253H10.1466ZM16.8951 23.4167V17.8686C16.8951 17.5716 16.9171 17.2746 17.0051 17.0629C17.243 16.4703 17.7861 15.8556 18.6991 15.8556C19.894 15.8556 20.3711 16.7659 20.3711 18.1024V23.4167H23.6725V17.7188C23.6725 14.6663 22.0445 13.2473 19.872 13.2473C18.1202 13.2473 17.3351 14.2098 16.8951 14.8876V14.922H16.8731L16.8951 14.8876V13.4824H13.5951C13.6364 14.4146 13.5951 23.4167 13.5951 23.4167H16.8951Z" fill="#A0A3A7"/>
</svg>
