<svg width="32" height="32" viewBox="0 0 32 32" fill="none" xmlns="http://www.w3.org/2000/svg">
<path d="M7.6361 10.7023C7.66281 10.4384 7.56217 10.1775 7.36512 9.99993L5.35789 7.5819V7.2207H11.5903L16.4077 17.7858L20.6429 7.2207H26.5844V7.5819L24.8682 9.22737C24.7202 9.34014 24.6468 9.52551 24.6775 9.70897V21.7991C24.6468 21.9826 24.7202 22.1679 24.8682 22.2807L26.5442 23.9262V24.2874H18.1138V23.9262L19.8501 22.2406C20.0207 22.07 20.0207 22.0198 20.0207 21.759V11.9865L15.1933 24.2472H14.541L8.92072 11.9865V20.2038C8.87386 20.5493 8.9886 20.8971 9.23184 21.1469L11.49 23.886V24.2472H5.08691V23.886L7.34505 21.1469C7.58652 20.8967 7.69457 20.5466 7.6361 20.2038V10.7023Z" fill="#A0A3A7"/>
</svg>
