<svg width="32" height="32" viewBox="0 0 32 32" fill="none" xmlns="http://www.w3.org/2000/svg">
<path d="M16 5C9.92617 5 5 9.92617 5 16C5 22.0738 9.92617 27 16 27C22.0738 27 27 22.0738 27 16C27 9.92617 22.0766 5 16 5ZM10.4267 16.3694L10.4734 16.2952L13.3362 11.8182C13.3458 11.8035 13.3591 11.7916 13.3749 11.7838C13.3906 11.776 13.4082 11.7726 13.4257 11.7739C13.4432 11.7752 13.46 11.7812 13.4744 11.7912C13.4888 11.8013 13.5003 11.815 13.5076 11.831C13.9843 12.9026 14.3986 14.2354 14.2043 15.065C14.1236 15.406 13.8972 15.868 13.6414 16.2952C13.6092 16.358 13.5734 16.4189 13.5342 16.4776C13.5253 16.4911 13.513 16.5021 13.4985 16.5093C13.484 16.5166 13.4678 16.5199 13.4517 16.5188H10.5119C10.4944 16.5191 10.4771 16.5146 10.4619 16.5059C10.4467 16.4971 10.4341 16.4844 10.4256 16.469C10.417 16.4537 10.4128 16.4364 10.4133 16.4188C10.4138 16.4013 10.4191 16.3842 10.4285 16.3694H10.4267ZM23.1812 17.9094C23.1813 17.929 23.1757 17.9481 23.1651 17.9646C23.1545 17.981 23.1394 17.994 23.1216 18.002C22.8988 18.0964 22.1408 18.4466 21.8254 18.8838C21.0206 20.004 20.4064 21.6063 19.0314 21.6063H13.2986C12.8146 21.6055 12.3355 21.5093 11.8887 21.3233C11.4418 21.1373 11.036 20.865 10.6944 20.5222C10.3528 20.1793 10.0821 19.7725 9.89778 19.325C9.71343 18.8774 9.61904 18.398 9.62 17.914V17.848C9.62 17.7948 9.664 17.7508 9.719 17.7508H12.9136C12.9778 17.7508 13.0236 17.8086 13.019 17.8718C12.9952 18.079 13.0346 18.2926 13.1336 18.486C13.3224 18.871 13.7166 19.1112 14.141 19.1112H15.7232V17.8764H14.1575C14.1392 17.8762 14.1212 17.871 14.1056 17.8614C14.09 17.8517 14.0773 17.838 14.0689 17.8217C14.0605 17.8054 14.0567 17.7871 14.058 17.7688C14.0592 17.7505 14.0654 17.7329 14.0759 17.7178L14.1337 17.6353C14.2803 17.4236 14.4921 17.0982 14.7029 16.726C14.8459 16.4748 14.9853 16.2072 15.0971 15.9377C15.1179 15.8888 15.1377 15.8399 15.1567 15.791C15.1869 15.7048 15.2181 15.6242 15.2401 15.5444C15.2615 15.4767 15.2814 15.4086 15.2997 15.34C15.3519 15.1108 15.3739 14.8688 15.3739 14.6186C15.3739 14.5196 15.3703 14.416 15.3611 14.3188C15.3565 14.2116 15.3428 14.1034 15.3299 13.9962C15.3203 13.9001 15.3056 13.8047 15.2859 13.7102C15.2609 13.5662 15.2309 13.4231 15.1961 13.2812L15.1833 13.2262C15.1558 13.1272 15.1319 13.0337 15.1007 12.9356C15.0133 12.6344 14.913 12.3372 14.8001 12.0446C14.7609 11.9345 14.7174 11.8259 14.6699 11.7192C14.6039 11.556 14.5361 11.4084 14.4747 11.27C14.4443 11.2106 14.4156 11.1504 14.3885 11.0894C14.3586 11.0236 14.3271 10.9585 14.2941 10.8942C14.2721 10.8456 14.2455 10.7988 14.2281 10.7548L14.0347 10.3992C14.0081 10.3506 14.0521 10.291 14.1052 10.3066L15.3153 10.6338H15.3244L15.483 10.6797L15.659 10.7292L15.7232 10.7466V10.0288C15.7232 9.68142 16 9.4 16.3456 9.4C16.4272 9.39978 16.508 9.41607 16.5831 9.44789C16.6583 9.47971 16.7262 9.52641 16.7828 9.58517C16.899 9.70376 16.9648 9.86279 16.9662 10.0288V11.0958L17.0954 11.1316C17.1052 11.1359 17.1147 11.1411 17.1238 11.1472C17.1556 11.1698 17.2005 11.2034 17.2586 11.248C17.3038 11.2841 17.3542 11.3259 17.4098 11.3736C17.591 11.5208 17.7666 11.6749 17.936 11.8356C18.1322 12.018 18.3522 12.2316 18.563 12.469C18.6226 12.5368 18.6794 12.6028 18.739 12.6762C18.7958 12.7486 18.86 12.8192 18.9132 12.8888C18.9856 12.9842 19.0598 13.0832 19.1286 13.1858C19.1588 13.2344 19.1964 13.2848 19.2248 13.3334C19.3128 13.4636 19.388 13.5974 19.4604 13.7322C19.4916 13.7936 19.5218 13.8614 19.5484 13.9274C19.63 14.108 19.6942 14.2904 19.7336 14.4756C19.7452 14.5153 19.754 14.5557 19.7602 14.5966V14.6058C19.773 14.658 19.7776 14.7158 19.7822 14.7744C19.8068 15.0453 19.7736 15.3184 19.685 15.5756C19.6566 15.6526 19.63 15.7314 19.5952 15.8084C19.5264 15.9643 19.4476 16.1228 19.3532 16.2686C19.322 16.3236 19.2844 16.3804 19.2496 16.4354C19.2102 16.4932 19.168 16.5482 19.1332 16.6004C19.0827 16.6698 19.0298 16.7373 18.9746 16.803C18.9269 16.8702 18.8762 16.9341 18.8224 16.9946C18.7491 17.0844 18.6742 17.1694 18.5978 17.2494C18.5538 17.3026 18.5062 17.3576 18.4548 17.4053C18.4072 17.4602 18.3558 17.5088 18.3118 17.5528C18.2348 17.6298 18.1743 17.6876 18.1212 17.738L17.9956 17.8498C17.987 17.8586 17.9767 17.8656 17.9654 17.8703C17.954 17.875 17.9419 17.8774 17.9296 17.8773H16.9662V19.1112H18.178C18.4484 19.1112 18.706 19.0158 18.915 18.838C18.9856 18.7766 19.2954 18.508 19.663 18.1028C19.6752 18.0893 19.6912 18.0797 19.7088 18.0753L23.0547 17.1064C23.0694 17.1022 23.0848 17.1014 23.0999 17.1041C23.1149 17.1069 23.1291 17.113 23.1414 17.1222C23.1536 17.1313 23.1636 17.1432 23.1705 17.1568C23.1774 17.1705 23.1811 17.1855 23.1812 17.2008V17.9094Z" fill="#A0A3A7"/>
</svg>
