<svg width="32" height="32" viewBox="0 0 32 32" fill="none" xmlns="http://www.w3.org/2000/svg">
<path d="M13.2491 16C12.5614 16 12 16.5614 12 17.2491C12 17.9368 12.5614 18.4982 13.2491 18.4982C13.9368 18.4982 14.4983 17.9368 14.4983 17.2491C14.4983 16.5614 13.9368 16 13.2491 16Z" fill="#A0A3A7"/>
<path d="M16.014 21.4596C16.4912 21.4596 18.1193 21.4035 18.9754 20.5473C19.1018 20.421 19.1018 20.2245 19.0035 20.0842C18.8772 19.9579 18.6667 19.9579 18.5404 20.0842C17.993 20.6175 16.8561 20.814 16.0281 20.814C15.2 20.814 14.0491 20.6175 13.5158 20.0842C13.3895 19.9579 13.179 19.9579 13.0526 20.0842C12.9263 20.2105 12.9263 20.421 13.0526 20.5473C13.8947 21.3895 15.5368 21.4596 16.014 21.4596Z" fill="#A0A3A7"/>
<path d="M17.5018 17.2491C17.5018 17.9368 18.0632 18.4982 18.7509 18.4982C19.4386 18.4982 20 17.9368 20 17.2491C20 16.5614 19.4386 16 18.7509 16C18.0632 16 17.5018 16.5614 17.5018 17.2491Z" fill="#A0A3A7"/>
<path fill-rule="evenodd" clip-rule="evenodd" d="M28 16C28 22.6274 22.6274 28 16 28C9.37258 28 4 22.6274 4 16C4 9.37258 9.37258 4 16 4C22.6274 4 28 9.37258 28 16ZM22.2456 14.2456C23.214 14.2456 24 15.0316 24 16C24 16.7158 23.5649 17.3333 22.9895 17.614C23.0175 17.7824 23.0316 17.9509 23.0316 18.1333C23.0316 20.828 19.9018 23.0035 16.0281 23.0035C12.1544 23.0035 9.02457 20.828 9.02457 18.1333C9.02457 17.9509 9.0386 17.7684 9.06667 17.6C8.44913 17.3193 8.02808 16.7158 8.02808 16C8.02808 15.0316 8.81404 14.2456 9.78246 14.2456C10.2456 14.2456 10.6807 14.4421 10.9895 14.7368C12.1965 13.8526 13.8667 13.3052 15.7333 13.2491L16.6176 9.06664C16.6456 8.98243 16.6877 8.91226 16.7579 8.87015C16.8281 8.82805 16.9123 8.81401 16.9965 8.82805L19.9018 9.44559C20.0983 9.02454 20.5193 8.74384 21.0105 8.74384C21.6983 8.74384 22.2597 9.30524 22.2597 9.99296C22.2597 10.6807 21.6983 11.2421 21.0105 11.2421C20.3368 11.2421 19.7895 10.7087 19.7614 10.0491L17.1649 9.50173L16.3649 13.2491C18.1895 13.3193 19.8456 13.8807 21.0386 14.7368C21.3474 14.428 21.7684 14.2456 22.2456 14.2456Z" fill="#A0A3A7"/>
</svg>
