<svg width="32" height="32" viewBox="0 0 32 32" fill="none" xmlns="http://www.w3.org/2000/svg">
<path d="M21.6997 21.2347H18.9325C18.4549 21.2716 17.9778 21.1581 17.568 20.9099C17.1583 20.6618 16.8366 20.2915 16.6481 19.8511C16.4582 19.4115 16.4086 18.9239 16.5059 18.455C16.6033 17.9861 16.843 17.5587 17.1923 17.231C17.4247 17.015 17.699 16.8492 17.9981 16.7436C18.2973 16.638 18.6149 16.5951 18.9313 16.6174H24.556C25.0977 16.6118 25.6239 16.7984 26.0412 17.1438C26.4585 17.4893 26.74 17.9714 26.8358 18.5046C26.9366 19.0127 26.8597 19.5399 26.6179 19.998C26.3761 20.4561 25.9841 20.8171 25.5077 21.0205C25.187 21.1563 24.8418 21.2249 24.4935 21.222C23.5672 21.2474 22.6398 21.2335 21.6997 21.2335M10.7757 21.8136V18.9457C10.7715 18.3407 11.0042 17.7581 11.4241 17.3225C11.8436 16.8892 12.4155 16.6366 13.0184 16.6185C13.3138 16.6082 13.6083 16.6563 13.885 16.76C14.1618 16.8637 14.4154 17.021 14.6312 17.2229C15.0677 17.6304 15.3259 18.1955 15.3491 18.794C15.3985 20.8071 15.3985 22.8197 15.3491 24.832C15.3395 25.1325 15.2697 25.4281 15.1438 25.7012C15.018 25.9742 14.8385 26.2193 14.6162 26.4217C14.3944 26.6234 14.1341 26.7781 13.8509 26.8766C13.5678 26.9751 13.2677 27.0153 12.9686 26.9948C12.3706 26.9757 11.8047 26.72 11.3951 26.2839C10.9846 25.8477 10.7621 25.2676 10.7757 24.6688C10.7641 23.7251 10.7757 22.77 10.7757 21.8136ZM21.1242 10.2784V13.0965C21.1471 13.412 21.1051 13.729 21.0008 14.0277C20.8964 14.3264 20.732 14.6005 20.5176 14.8332C20.1945 15.1815 19.7712 15.4209 19.3061 15.5181C18.8411 15.6154 18.3573 15.5658 17.9217 15.3762C17.6319 15.2496 17.3714 15.0644 17.1566 14.8323C16.9418 14.6002 16.7773 14.3261 16.6736 14.0273C16.5696 13.7287 16.5278 13.4119 16.5509 13.0965V7.27153C16.5555 6.97098 16.6199 6.67436 16.7401 6.39889C16.8604 6.12341 17.0341 5.87456 17.2514 5.6668C17.4683 5.46021 17.7241 5.29884 18.004 5.1921C18.2838 5.08535 18.5822 5.03537 18.8816 5.04506C19.1813 5.04973 19.4771 5.11373 19.7519 5.23336C20.0268 5.35299 20.2752 5.52589 20.4828 5.74206C20.9036 6.1793 21.1338 6.76553 21.1231 7.37225C21.1358 8.34018 21.1231 9.30927 21.1231 10.2784M10.1759 15.4352H7.36824C7.06845 15.4356 6.77157 15.3765 6.49474 15.2614C6.21791 15.1464 5.96663 14.9776 5.7554 14.7649C5.43586 14.4442 5.2184 14.0362 5.13042 13.5922C5.04244 13.1482 5.08788 12.688 5.26101 12.2698C5.49257 11.71 5.9363 11.2646 6.49524 11.0309C6.77227 10.9171 7.06874 10.8582 7.36824 10.8573H13.0682C13.3678 10.8571 13.6644 10.9162 13.941 11.0313C14.2177 11.1463 14.4688 11.315 14.6798 11.5276C14.9979 11.848 15.2143 12.2551 15.3019 12.6979C15.3895 13.1408 15.3444 13.5996 15.1723 14.0169C15.0002 14.4342 14.7087 14.7914 14.3344 15.0438C13.9601 15.2961 13.5196 15.4323 13.0682 15.4352H10.1759ZM15.3606 8.2904V9.33474C15.3606 9.54315 15.2912 9.63693 15.1106 9.63693H12.7173C12.1394 9.56322 11.6134 9.26554 11.2527 8.80794C10.892 8.34822 10.7258 7.76551 10.7896 7.18469C10.8151 6.61505 11.0524 6.07551 11.4542 5.67259C11.7533 5.37117 12.1308 5.15948 12.5439 5.06145C12.9571 4.96343 13.3894 4.98298 13.7921 5.11792C14.1947 5.25285 14.5515 5.49776 14.8222 5.82496C15.0928 6.15215 15.2665 6.54856 15.3236 6.96934C15.3606 7.4093 15.3606 7.53319 15.3606 7.93263V8.2904ZM9.56114 16.6301C9.63061 17.5726 9.63061 18.5158 9.56114 19.4598C9.4547 20.0097 9.14247 20.4983 8.68815 20.826C8.23386 21.152 7.67249 21.2927 7.11815 21.2196C6.54643 21.1715 6.01294 20.9128 5.62109 20.4937C5.22888 20.0724 5.00763 19.5201 5.0005 18.9446C4.98844 18.371 5.19404 17.8142 5.57594 17.3861C5.95802 16.9589 6.48598 16.6926 7.05563 16.6417C7.90778 16.5664 8.75877 16.6301 9.56114 16.6301ZM22.3017 15.4225V12.9089C22.362 12.3196 22.6479 11.7777 23.0995 11.398C23.551 11.017 24.1311 10.8283 24.7193 10.8712C25.3236 10.8712 25.9037 11.112 26.3309 11.5415C26.7594 11.9712 27 12.5533 27 13.1601C27 13.767 26.7594 14.349 26.3309 14.7788C25.9026 15.2083 25.3236 15.4503 24.7193 15.4503C23.9424 15.4503 23.1412 15.4248 22.3017 15.4248M16.5509 22.455C17.4787 22.3917 18.4057 22.3917 19.3319 22.455C19.897 22.5592 20.3971 22.8799 20.7306 23.35C21.0617 23.8201 21.1995 24.4013 21.1115 24.9709C21.0422 25.5377 20.7659 26.0589 20.3358 26.4344C19.9053 26.8085 19.3509 27.0087 18.7808 26.996C18.2143 26.9935 17.6702 26.7748 17.2595 26.3846C16.8479 25.9936 16.5997 25.4612 16.5648 24.8945C16.5138 24.0899 16.5509 23.2724 16.5509 22.455Z" fill="#A0A3A7"/>
</svg>
