<svg width="32" height="32" viewBox="0 0 32 32" fill="none" xmlns="http://www.w3.org/2000/svg">
<path d="M16.5033 4.0204C17.7603 4 19.0069 4.0096 20.2536 4C20.3307 5.53003 20.8579 7.09005 21.9331 8.17007C23.0071 9.28009 24.5231 9.7901 26 9.9605V13.9902C24.6187 13.9398 23.2281 13.6398 21.9711 13.0206C21.4243 12.7601 20.9155 12.4301 20.4171 12.0905C20.4079 15.0102 20.4263 17.9298 20.3975 20.8399C20.3245 22.2529 19.8761 23.6169 19.1025 24.7796C17.8466 26.6996 15.6687 27.95 13.4344 27.9896C12.0622 28.07 10.6901 27.68 9.52057 26.96C7.58209 25.7696 6.22031 23.5903 6.01886 21.2503C5.99729 20.7538 5.99422 20.2566 6.00966 19.7599C6.18232 17.8602 7.08365 16.0398 8.48456 14.8002C10.0766 13.3602 12.3017 12.6701 14.3841 13.0806C14.4025 14.5602 14.3449 16.0398 14.3449 17.5206C13.3952 17.2002 12.2833 17.2902 11.4487 17.8902C10.8423 18.3095 10.3839 18.9239 10.1433 19.6399C9.94188 20.1499 9.99944 20.7103 10.0098 21.2503C10.24 22.8895 11.7549 24.2695 13.3665 24.1207C14.4416 24.1099 15.4673 23.4607 16.0244 22.5103C16.2063 22.1803 16.4077 21.8395 16.4169 21.4495C16.5136 19.6603 16.4745 17.8794 16.4848 16.0902C16.4941 12.0605 16.4745 8.04047 16.5033 4.0204Z" fill="#A0A3A7"/>
</svg>
