<svg width="32" height="32" viewBox="0 0 32 32" fill="none" xmlns="http://www.w3.org/2000/svg">
<path d="M20.3668 24.0904C16.7024 24.0904 13.731 21.6154 13.731 18.5656C13.731 15.5131 16.6996 13.0381 20.364 13.0381C24.0284 13.0381 26.9998 15.5131 26.9998 18.5656C26.9998 20.2294 26.1061 21.7295 24.7091 22.7402C24.6306 22.7948 24.5721 22.8734 24.5424 22.9642C24.5126 23.055 24.5132 23.153 24.5441 23.2434L24.8438 24.3572C24.8625 24.4093 24.8758 24.4632 24.8837 24.5181C24.8823 24.5767 24.8584 24.6326 24.8169 24.674C24.7754 24.7155 24.7196 24.7394 24.6609 24.7408C24.616 24.7376 24.5726 24.7235 24.5344 24.6996L23.081 23.8608C22.9751 23.7957 22.8534 23.7605 22.729 23.7591C22.6629 23.7592 22.5971 23.769 22.5338 23.7879C21.8292 23.9896 21.0997 24.0914 20.3668 24.0904ZM17.4627 17.3708C17.5464 17.4992 17.6618 17.6038 17.7978 17.6745C17.9338 17.7452 18.0858 17.7795 18.2389 17.7742C18.3921 17.7689 18.5413 17.7242 18.6721 17.6442C18.8029 17.5643 18.9108 17.4519 18.9853 17.318C19.0599 17.1841 19.0987 17.0332 19.0978 16.88C19.0969 16.7267 19.0564 16.5763 18.9803 16.4433C18.9042 16.3102 18.795 16.1991 18.6633 16.1207C18.5316 16.0423 18.3819 15.9993 18.2286 15.9957C18.1118 15.9956 17.9961 16.0185 17.8882 16.0631C17.7802 16.1078 17.6822 16.1733 17.5996 16.256C17.5171 16.3387 17.4517 16.4368 17.4072 16.5448C17.3627 16.6528 17.34 16.7686 17.3404 16.8854C17.3303 17.0561 17.3722 17.2257 17.4627 17.3708ZM21.9068 17.3721C21.9909 17.5005 22.1068 17.6049 22.2433 17.6751C22.3797 17.7454 22.5321 17.779 22.6854 17.7729C22.8388 17.7667 22.9879 17.7209 23.1183 17.64C23.2487 17.5591 23.3559 17.4457 23.4294 17.311C23.5029 17.1763 23.5403 17.0249 23.5379 16.8714C23.5355 16.718 23.4934 16.5677 23.4157 16.4354C23.3379 16.3031 23.2272 16.1932 23.0944 16.1164C22.9615 16.0395 22.811 15.9985 22.6575 15.9971C22.4228 15.9975 22.1978 16.0909 22.0318 16.2569C21.8658 16.4229 21.7724 16.6479 21.772 16.8826C21.7671 17.0556 21.814 17.2261 21.9068 17.3721Z" fill="#A0A3A7"/>
<path d="M5 13.6358C5 15.6365 6.07389 17.4377 7.7514 18.6629C7.84503 18.7287 7.91479 18.8231 7.95024 18.9319C7.98569 19.0408 7.98491 19.1581 7.94803 19.2665L7.72665 20.0915L7.58915 20.6044C7.5653 20.6661 7.55048 20.7309 7.54515 20.7969C7.54459 20.8319 7.55108 20.8666 7.56422 20.8991C7.57735 20.9315 7.59688 20.961 7.62164 20.9858C7.64639 21.0105 7.67587 21.0301 7.70832 21.0432C7.74077 21.0563 7.77552 21.0628 7.81053 21.0623C7.86553 21.0623 7.9164 21.049 7.96315 21.0224L9.70667 20.0145C9.83427 19.9365 9.98065 19.8947 10.1302 19.8935C10.2108 19.8935 10.2892 19.905 10.3653 19.9279C11.0929 20.1371 11.8432 20.2571 12.5997 20.2854C12.4381 19.7263 12.3562 19.1472 12.3563 18.5652C12.3563 14.5282 16.1857 11.6627 20.3644 11.6627L20.5707 11.6654C19.5573 8.96489 16.5391 7 12.9696 7C8.56954 7 5 9.97003 5 13.6358ZM11.3691 11.4977C11.3691 11.7785 11.2575 12.0478 11.059 12.2463C10.8604 12.4449 10.5911 12.5564 10.3103 12.5564C10.0295 12.5564 9.7602 12.4449 9.56165 12.2463C9.36309 12.0478 9.25154 11.7785 9.25154 11.4977C9.25154 11.2169 9.36309 10.9476 9.56165 10.749C9.7602 10.5505 10.0295 10.4389 10.3103 10.4389C10.5911 10.4389 10.8604 10.5505 11.059 10.749C11.2575 10.9476 11.3691 11.2169 11.3691 11.4977ZM16.6972 11.4977C16.6972 11.7785 16.5857 12.0478 16.3871 12.2463C16.1886 12.4449 15.9193 12.5564 15.6385 12.5564C15.3577 12.5564 15.0884 12.4449 14.8898 12.2463C14.6913 12.0478 14.5797 11.7785 14.5797 11.4977C14.5797 11.2169 14.6913 10.9476 14.8898 10.749C15.0884 10.5505 15.3577 10.4389 15.6385 10.4389C15.9193 10.4389 16.1886 10.5505 16.3871 10.749C16.5857 10.9476 16.6972 11.2169 16.6972 11.4977Z" fill="#A0A3A7"/>
</svg>
