 <svg width="32" height="32" viewBox="0 0 32 32" fill="none" xmlns="http://www.w3.org/2000/svg">
        <path d="M19.5 18.9668V7.99723L22.5 7V17.9695L19.5 18.9668ZM10.5 20.9612C11.2833 20.9612 12.0543 21.0526 12.813 21.2355C13.5717 21.4183 14.3007 21.6759 15 22.0083V12.1856C14.3167 11.7867 13.596 11.4875 12.838 11.2881C12.08 11.0886 11.3007 10.9889 10.5 10.9889C9.9 10.9889 9.30433 11.0471 8.713 11.1634C8.12167 11.2798 7.55067 11.4543 7 11.687V21.5596C7.56667 21.3601 8.14167 21.2105 8.725 21.1108C9.30833 21.0111 9.9 20.9612 10.5 20.9612ZM25 21.5596V9.56787C25.35 9.70083 25.6917 9.84211 26.025 9.99169C26.3583 10.1413 26.6833 10.3241 27 10.5402V25C26.2167 24.3518 25.3583 23.8489 24.425 23.4912C23.4917 23.1335 22.5167 22.955 21.5 22.9557C20.5 22.9557 19.5333 23.1302 18.6 23.4792C17.6667 23.8283 16.8 24.3186 16 24.9501C15.2 24.3186 14.3333 23.8283 13.4 23.4792C12.4667 23.1302 11.5 22.9557 10.5 22.9557C9.48333 22.9557 8.50833 23.1345 7.575 23.4922C6.64167 23.8499 5.78333 24.3525 5 25V10.5402C5.8 9.99169 6.671 9.59712 7.613 9.35645C8.555 9.11579 9.51733 8.99512 10.5 8.99446C11.6667 8.99446 12.796 9.1856 13.888 9.56787C14.98 9.95014 16.0173 10.4571 17 11.0886V22.0083C17.7 21.6759 18.4293 21.4183 19.188 21.2355C19.9467 21.0526 20.7173 20.9612 21.5 20.9612C22.1 20.9612 22.6917 21.0111 23.275 21.1108C23.8583 21.2105 24.4333 21.3601 25 21.5596Z" fill="#A0A3A7"/>
      </svg>