<svg width="32" height="32" viewBox="0 0 32 32" fill="none" xmlns="http://www.w3.org/2000/svg">
<path d="M26.7809 11.5999C26.7809 11.5999 26.566 10.0831 25.9043 9.41709C25.0664 8.54053 24.1297 8.53623 23.7 8.48467C20.6234 8.26123 16.0043 8.26123 16.0043 8.26123H15.9957C15.9957 8.26123 11.3766 8.26123 8.3 8.48467C7.87031 8.53623 6.93359 8.54053 6.0957 9.41709C5.43398 10.0831 5.22344 11.5999 5.22344 11.5999C5.22344 11.5999 5 13.3831 5 15.162V16.8292C5 18.6081 5.21914 20.3913 5.21914 20.3913C5.21914 20.3913 5.43398 21.9081 6.09141 22.5741C6.9293 23.4507 8.0293 23.4206 8.51914 23.5151C10.2809 23.6827 16 23.7343 16 23.7343C16 23.7343 20.6234 23.7257 23.7 23.5065C24.1297 23.455 25.0664 23.4507 25.9043 22.5741C26.566 21.9081 26.7809 20.3913 26.7809 20.3913C26.7809 20.3913 27 18.6124 27 16.8292V15.162C27 13.3831 26.7809 11.5999 26.7809 11.5999ZM13.727 18.853V12.6698L19.6695 15.7722L13.727 18.853Z" fill="#A0A3A7"/>
</svg>
